<svg width="240" height="240" viewBox="0 0 240 240" fill="none" xmlns="http://www.w3.org/2000/svg">
  <circle cx="120" cy="120" r="108" fill="#2D6A4F"/>
  <path d="M120 54C145.4 54 166 74.6 166 100V108C166 133.4 145.4 154 120 154C94.6 154 74 133.4 74 108V100C74 74.6 94.6 54 120 54Z" fill="#FFF9F2"/>
  <path d="M96 90C96 76.7452 106.745 66 120 66H124C137.255 66 148 76.7452 148 90V96C148 109.255 137.255 120 124 120H120C106.745 120 96 109.255 96 96V90Z" fill="#76C893"/>
  <path d="M100 138C100 128.059 108.059 120 118 120H122C131.941 120 140 128.059 140 138V146C140 155.941 131.941 164 122 164H118C108.059 164 100 155.941 100 146V138Z" fill="#F4A261"/>
  <path d="M93 176C99.5 158.5 113.5 148 120 148C126.5 148 140.5 158.5 147 176" stroke="#FFF9F2" stroke-width="10" stroke-linecap="round"/>
</svg>
