<svg width="240" height="240" viewBox="0 0 240 240" fill="none" xmlns="http://www.w3.org/2000/svg">
  <rect width="240" height="240" rx="56" fill="#FFF8F0"/>
  <path d="M71 88C71 61.49 92.49 40 119 40H121C147.51 40 169 61.49 169 88V108C169 134.51 147.51 156 121 156H119C92.49 156 71 134.51 71 108V88Z" fill="#2D6A4F"/>
  <path d="M88 76C88 62.7452 98.7452 52 112 52H128C141.255 52 152 62.7452 152 76V92C152 105.255 141.255 116 128 116H112C98.7452 116 88 105.255 88 92V76Z" fill="#76C893"/>
  <path d="M95 90C95 78.9543 103.954 70 115 70H125C136.046 70 145 78.9543 145 90V96C145 107.046 136.046 116 125 116H115C103.954 116 95 107.046 95 96V90Z" fill="#FFF7E8"/>
  <path d="M98 130C98 117.85 107.85 108 120 108H124C136.15 108 146 117.85 146 130V150C146 162.15 136.15 172 124 172H120C107.85 172 98 162.15 98 150V130Z" fill="#F4A261"/>
  <path d="M104 130C104 121.163 111.163 114 120 114H124C132.837 114 140 121.163 140 130V146C140 154.837 132.837 162 124 162H120C111.163 162 104 154.837 104 146V130Z" fill="#FFF1D7"/>
  <path d="M112 124H130" stroke="#2D6A4F" stroke-width="8" stroke-linecap="round"/>
  <path d="M112 140H126" stroke="#2D6A4F" stroke-width="8" stroke-linecap="round"/>
  <path d="M79 180C84.5 164.5 99.5 154 122 154C144.5 154 159.5 164.5 165 180" stroke="#2D6A4F" stroke-width="10" stroke-linecap="round"/>
  <text x="120" y="208" textAnchor="middle" fill="#1B4332" fontFamily="Segoe UI, Arial, sans-serif" fontSize="24" fontWeight="700">Bharathi's</text>
</svg>
